<svg width="36" height="36" viewBox="0 0 36 36" fill="none" xmlns="http://www.w3.org/2000/svg">
<path d="M19.9125 33C19.3375 33 18.9187 32.8125 18.6562 32.4375C18.3937 32.0625 18.3625 31.6 18.5625 31.05L24.075 16.425C24.225 16.025 24.5 15.6875 24.9 15.4125C25.3 15.1375 25.7125 15 26.1375 15C26.5625 15 26.9812 15.1375 27.3937 15.4125C27.8062 15.6875 28.0875 16.025 28.2375 16.425L33.8625 30.9C34.0875 31.475 34.0625 31.9687 33.7875 32.3812C33.5125 32.7937 33.05 33 32.4 33C32.125 33 31.8625 32.9125 31.6125 32.7375C31.3625 32.5625 31.1875 32.3375 31.0875 32.0625L29.85 28.275H22.65L21.225 32.1C21.125 32.35 20.95 32.5625 20.7 32.7375C20.45 32.9125 20.1875 33 19.9125 33ZM23.475 25.65H28.8L26.175 18.375H26.1L23.475 25.65ZM10.8375 12.825C11.2125 13.475 11.625 14.1063 12.075 14.7188C12.525 15.3312 13.0125 15.9625 13.5375 16.6125C14.6625 15.4375 15.6 14.2187 16.35 12.9562C17.1 11.6937 17.7375 10.375 18.2625 9H3C2.575 9 2.21875 8.85625 1.93125 8.56875C1.64375 8.28125 1.5 7.925 1.5 7.5C1.5 7.075 1.64375 6.71875 1.93125 6.43125C2.21875 6.14375 2.575 6 3 6H12V4.5C12 4.075 12.1437 3.71875 12.4312 3.43125C12.7187 3.14375 13.075 3 13.5 3C13.925 3 14.2812 3.14375 14.5687 3.43125C14.8562 3.71875 15 4.075 15 4.5V6H24C24.425 6 24.7812 6.14375 25.0687 6.43125C25.3562 6.71875 25.5 7.075 25.5 7.5C25.5 7.925 25.3562 8.28125 25.0687 8.56875C24.7812 8.85625 24.425 9 24 9H21.2625C20.7125 10.725 19.9812 12.4187 19.0687 14.0812C18.1562 15.7437 17.0375 17.325 15.7125 18.825L19.3875 22.5375L18.2625 25.575L13.5 21L7.0125 27.4875C6.7375 27.7625 6.4 27.9 6 27.9C5.6 27.9 5.2625 27.75 4.9875 27.45C4.6875 27.175 4.5375 26.8375 4.5375 26.4375C4.5375 26.0375 4.6875 25.6875 4.9875 25.3875L11.5875 18.7875C10.9375 18.0125 10.325 17.2312 9.75 16.4437C9.175 15.6562 8.65 14.85 8.175 14.025C7.875 13.475 7.85 13 8.1 12.6C8.35 12.2 8.8 12 9.45 12C9.725 12 9.99375 12.0813 10.2562 12.2438C10.5187 12.4063 10.7125 12.6 10.8375 12.825Z" fill="url(#paint0_linear_16_51)"/>
<defs>
<linearGradient id="paint0_linear_16_51" x1="17.7572" y1="3" x2="17.7572" y2="33" gradientUnits="userSpaceOnUse">
<stop stop-color="#4E7EC6"/>
<stop offset="1" stop-color="#2E2E99"/>
</linearGradient>
</defs>
</svg>
