<svg width="36" height="36" viewBox="0 0 36 36" fill="none" xmlns="http://www.w3.org/2000/svg">
<path d="M18.0375 33.0001C17.4375 33.0001 16.925 32.7876 16.5 32.3626C16.075 31.9376 15.8625 31.4251 15.8625 30.8251V27.4126H6.63752C6.18752 27.4126 5.85002 27.2126 5.62502 26.8126C5.40002 26.4126 5.42502 26.0251 5.70002 25.6501L11.5875 17.1376H10.2C9.75002 17.1376 9.41252 16.9376 9.18752 16.5376C8.96252 16.1376 8.98752 15.7501 9.26252 15.3751L17.0625 4.31257C17.1875 4.13757 17.3313 4.01257 17.4938 3.93757C17.6563 3.86257 17.825 3.82507 18 3.82507C18.175 3.82507 18.3438 3.86257 18.5063 3.93757C18.6688 4.01257 18.8125 4.13757 18.9375 4.31257L26.7375 15.3751C27.0125 15.7501 27.0375 16.1376 26.8125 16.5376C26.5875 16.9376 26.25 17.1376 25.8 17.1376H24.45L30.3 25.6501C30.575 26.0251 30.6 26.4126 30.375 26.8126C30.15 27.2126 29.8125 27.4126 29.3625 27.4126H20.175V30.8626C20.175 31.4626 19.9688 31.9688 19.5563 32.3813C19.1438 32.7938 18.6375 33.0001 18.0375 33.0001ZM8.85002 25.1626H15.9375H12.5625H18H23.4375H20.1H27.1875H8.85002ZM8.85002 25.1626H27.1875L20.1 14.8876H23.4375L18 7.16257L12.5625 14.8876H15.9375L8.85002 25.1626Z" fill="url(#paint0_linear_8_57)"/>
<defs>
<linearGradient id="paint0_linear_8_57" x1="18" y1="3.82507" x2="18" y2="33.0001" gradientUnits="userSpaceOnUse">
<stop stop-color="#4E7EC6"/>
<stop offset="1" stop-color="#2E2E99"/>
</linearGradient>
</defs>
</svg>
